<?xml version="1.0" encoding="UTF-8" standalone="no"?><!DOCTYPE svg PUBLIC "-//W3C//DTD SVG 1.1//EN" "http://www.w3.org/Graphics/SVG/1.1/DTD/svg11.dtd"><svg width="100%" height="100%" viewBox="0 0 500 300" version="1.1" xmlns="http://www.w3.org/2000/svg" xmlns:xlink="http://www.w3.org/1999/xlink" xml:space="preserve" xmlns:serif="http://www.serif.com/" style="fill-rule:evenodd;clip-rule:evenodd;stroke-linejoin:round;stroke-miterlimit:1.41421;"><path d="M205.671,129.308c1.667,0.658 2.78,1.422 5.971,0.207l41.794,-13.243l-76.453,0.094l28.688,12.942Z" style="fill:none;"/><path d="M270.737,116.363l71.722,0c4.126,0 7.511,-4.076 7.511,-9.027l0,-4.942l-243.145,0l0,4.942c0,4.961 3.385,9.027 7.51,9.027l40.497,0c-0.389,0.674 -0.707,1.393 -0.991,2.158c-2.253,6.461 0.305,13.975 5.692,16.687l67.449,33.994l51.265,0l18.142,1.98l12.762,-36.45l-38.414,-18.369Zm-59.095,13.152c-3.191,1.215 -4.304,0.451 -5.971,-0.207l-28.688,-12.942l76.453,-0.094l-41.794,13.243Z" style="fill-rule:nonzero;"/><path d="M315.859,129.308l-19.408,55.438l53.519,31.038l0,-69.478l-34.111,-16.998Z" style="fill:#fff;fill-rule:nonzero;stroke:#290f0f;stroke-width:5.9px;"/><path d="M121.265,40.998l11.143,0l14.201,61.611l-8.914,0l-2.928,-14.07l-16.473,0l-3.015,14.07l-8.215,0l14.201,-61.611Zm-1.529,40.594l13.458,0l-6.51,-32.816l-6.948,32.816Z" style="fill-rule:nonzero;"/><path d="M156.091,40.998l15.119,0c2.505,0 4.879,0.175 7.122,0.525c2.564,0.378 4.821,1.238 6.773,2.578c3.379,2.272 5.346,5.447 5.899,9.525c0.262,2.01 0.408,4.268 0.437,6.773l0,22.678c-0.087,7.603 -1.413,12.716 -3.976,15.338c-1.952,2.01 -4.297,3.291 -7.035,3.845c-1.166,0.233 -3.86,0.349 -8.084,0.349l-16.255,0l0,-61.611Zm8.477,6.948l0,47.716l7.822,0c4.69,0 7.69,-1.209 9.001,-3.627c1.078,-2.039 1.602,-5.404 1.573,-10.094l0,-20.886c0,-4.69 -0.568,-7.909 -1.704,-9.657c-1.486,-2.243 -4.443,-3.394 -8.87,-3.452l-7.822,0Z" style="fill-rule:nonzero;"/><path d="M216.435,40.998l5.069,0c1.951,0.029 3.743,0.219 5.374,0.568c6.263,1.224 9.439,6.147 9.526,14.769c0,4.516 -0.83,7.968 -2.491,10.356c-1.602,2.243 -4.719,3.758 -9.351,4.545c2.884,0.32 4.953,0.859 6.205,1.617c1.836,1.106 2.972,2.883 3.409,5.33c0.291,1.632 0.48,3.54 0.568,5.725l0.349,7.253c0.146,2.768 0.379,4.938 0.699,6.511c0.175,1.136 0.583,2.782 1.224,4.937l-8.827,0l-0.83,-3.932c-0.233,-1.107 -0.393,-2.52 -0.481,-4.239l-0.306,-5.549l-0.305,-5.768c-0.379,-4.428 -2.098,-7.079 -5.157,-7.953c-1.31,-0.349 -2.796,-0.524 -4.457,-0.524l-5.855,0l0,27.965l-8.477,0l0,-61.611l14.114,0Zm-5.637,6.948l0,19.75l6.074,0c1.777,0 3.335,-0.131 4.675,-0.393c2.622,-0.495 4.428,-1.777 5.419,-3.845c0.641,-1.369 0.961,-3.641 0.961,-6.817c0,-3.437 -0.947,-5.826 -2.84,-7.166c-1.369,-0.99 -3.947,-1.5 -7.734,-1.529l-6.555,0Z" style="fill-rule:nonzero;"/><rect x="246.891" y="40.998" width="8.477" height="61.611" style="fill-rule:nonzero;"/><path d="M278.702,40.998l11.142,0l14.201,61.611l-8.914,0l-2.927,-14.07l-16.474,0l-3.015,14.07l-8.214,0l14.201,-61.611Zm-1.53,40.594l13.459,0l-6.511,-32.816l-6.948,32.816Z" style="fill-rule:nonzero;"/><path d="M326.199,40.998l15.993,53.091l0,-53.091l7.953,0l0,61.611l-13.284,0l-15.993,-52.522l0,52.522l-7.952,0l0,-61.611l13.283,0Z" style="fill-rule:nonzero;"/></svg>