<?xml version="1.0" encoding="UTF-8" standalone="no"?><!DOCTYPE svg PUBLIC "-//W3C//DTD SVG 1.1//EN" "http://www.w3.org/Graphics/SVG/1.1/DTD/svg11.dtd"><svg width="100%" height="100%" viewBox="0 0 500 300" version="1.1" xmlns="http://www.w3.org/2000/svg" xmlns:xlink="http://www.w3.org/1999/xlink" xml:space="preserve" xmlns:serif="http://www.serif.com/" style="fill-rule:evenodd;clip-rule:evenodd;stroke-linejoin:round;stroke-miterlimit:1.41421;"><path d="M205.671,129.308c1.667,0.658 2.78,1.422 5.971,0.207l41.794,-13.243l-76.453,0.094l28.688,12.942Z" style="fill:none;"/><path d="M270.737,116.363l71.722,0c4.126,0 7.511,-4.076 7.511,-9.027l0,-4.942l-243.145,0l0,4.942c0,4.961 3.385,9.027 7.51,9.027l40.497,0c-0.389,0.674 -0.707,1.393 -0.991,2.158c-2.253,6.461 0.305,13.975 5.692,16.687l67.449,33.994l51.265,0l18.142,1.98l12.762,-36.45l-38.414,-18.369Zm-59.095,13.152c-3.191,1.215 -4.304,0.451 -5.971,-0.207l-28.688,-12.942l76.453,-0.094l-41.794,13.243Z" style="fill-rule:nonzero;"/><path d="M315.859,129.308l-19.408,55.438l53.519,31.038l0,-69.478l-34.111,-16.998Z" style="fill:#fff;fill-rule:nonzero;stroke:#290f0f;stroke-width:5.9px;"/><text x="103.656px" y="102.609px" style="font-family:'UniversCondensed', 'Univers Condensed', sans-serif;font-stretch:ultra-condensed;font-size:89.489px;">ADRIAN</text></svg>