<?xml version="1.0" encoding="UTF-8" standalone="no"?><!DOCTYPE svg PUBLIC "-//W3C//DTD SVG 1.1//EN" "http://www.w3.org/Graphics/SVG/1.1/DTD/svg11.dtd"><svg width="100%" height="100%" viewBox="0 0 500 300" version="1.1" xmlns="http://www.w3.org/2000/svg" xmlns:xlink="http://www.w3.org/1999/xlink" xml:space="preserve" xmlns:serif="http://www.serif.com/" style="fill-rule:evenodd;clip-rule:evenodd;stroke-linejoin:round;stroke-miterlimit:1.41421;"><g><path d="M205.809,150.289c2.799,1.104 4.668,2.388 10.025,0.348l70.181,-22.238l-128.38,0.158l48.174,21.732Z" style="fill:none;"/><path d="M315.067,128.552l120.437,0c6.927,0 12.612,-6.845 12.612,-15.159l0,-8.298l-408.291,0l0,8.298c0,8.33 5.684,15.159 12.611,15.159l68.004,0c-0.654,1.131 -1.189,2.339 -1.665,3.623c-3.784,10.85 0.512,23.468 9.558,28.022l113.26,57.082l86.086,0l30.463,3.325l21.431,-61.207l-64.506,-30.845Zm-99.233,22.085c-5.357,2.04 -7.226,0.756 -10.025,-0.348l-48.174,-21.732l128.38,-0.158l-70.181,22.238Z" style="fill-rule:nonzero;"/><path d="M390.837,150.289l-32.591,93.091l89.87,52.12l0,-116.668l-57.279,-28.543Z" style="fill:#fff;fill-rule:nonzero;stroke:#290f0f;stroke-width:5.9px;"/><path d="M64.073,1.998l18.711,0l23.847,103.458l-14.969,0l-4.916,-23.626l-27.662,0l-5.063,23.626l-13.794,0l23.846,-103.458Zm-2.568,68.165l22.6,0l-10.933,-55.104l-11.667,55.104Z" style="fill-rule:nonzero;"/><path d="M122.553,1.998l25.388,0c4.206,0 8.193,0.294 11.96,0.881c4.304,0.636 8.095,2.079 11.373,4.329c5.674,3.815 8.976,9.147 9.905,15.995c0.441,3.376 0.685,7.167 0.734,11.373l0,38.082c-0.147,12.767 -2.372,21.352 -6.677,25.754c-3.277,3.376 -7.215,5.528 -11.813,6.457c-1.957,0.392 -6.482,0.587 -13.575,0.587l-27.295,0l0,-103.458Zm14.235,11.667l0,80.125l13.134,0c7.875,0 12.914,-2.03 15.115,-6.09c1.81,-3.424 2.69,-9.074 2.641,-16.95l0,-35.073c0,-7.875 -0.954,-13.281 -2.861,-16.216c-2.495,-3.766 -7.46,-5.698 -14.895,-5.796l-13.134,0Z" style="fill-rule:nonzero;"/><path d="M223.883,1.998l8.512,0c3.277,0.049 6.285,0.367 9.025,0.954c10.517,2.055 15.849,10.321 15.995,24.801c0,7.582 -1.394,13.378 -4.182,17.389c-2.69,3.767 -7.924,6.311 -15.702,7.631c4.843,0.538 8.316,1.443 10.419,2.715c3.082,1.859 4.99,4.843 5.723,8.952c0.489,2.739 0.807,5.943 0.954,9.612l0.587,12.18c0.245,4.647 0.636,8.291 1.174,10.933c0.294,1.908 0.978,4.671 2.055,8.291l-14.822,0l-1.394,-6.603c-0.391,-1.859 -0.66,-4.232 -0.807,-7.118l-0.514,-9.318l-0.513,-9.686c-0.636,-7.435 -3.522,-11.886 -8.659,-13.354c-2.201,-0.587 -4.696,-0.88 -7.484,-0.88l-9.832,0l0,46.959l-14.235,0l0,-103.458l23.7,0Zm-9.465,11.667l0,33.165l10.199,0c2.984,0 5.601,-0.22 7.851,-0.66c4.403,-0.832 7.435,-2.984 9.099,-6.457c1.076,-2.299 1.614,-6.115 1.614,-11.447c0,-5.772 -1.59,-9.783 -4.77,-12.033c-2.299,-1.663 -6.628,-2.519 -12.987,-2.568l-11.006,0Z" style="fill-rule:nonzero;"/><rect x="275.025" y="1.998" width="14.235" height="103.458" style="fill-rule:nonzero;"/><path d="M328.442,1.998l18.71,0l23.847,103.458l-14.968,0l-4.916,-23.626l-27.662,0l-5.063,23.626l-13.795,0l23.847,-103.458Zm-2.568,68.165l22.599,0l-10.933,-55.104l-11.666,55.104Z" style="fill-rule:nonzero;"/><path d="M408.2,1.998l26.855,89.15l0,-89.15l13.354,0l0,103.458l-22.306,0l-26.855,-88.196l0,88.196l-13.354,0l0,-103.458l22.306,0Z" style="fill-rule:nonzero;"/></g></svg>